<svg width="34" height="34" viewBox="0 0 34 34" fill="none" xmlns="http://www.w3.org/2000/svg">
<circle cx="17" cy="17" r="17" fill="#002685"/>
<path d="M14.01 22.12C13.19 22.12 12.455 21.91 11.805 21.49C11.165 21.07 10.655 20.46 10.275 19.66C9.905 18.86 9.72 17.89 9.72 16.75C9.72 15.61 9.905 14.64 10.275 13.84C10.655 13.04 11.165 12.43 11.805 12.01C12.455 11.59 13.19 11.38 14.01 11.38C14.82 11.38 15.55 11.59 16.2 12.01C16.85 12.43 17.36 13.04 17.73 13.84C18.1 14.64 18.285 15.61 18.285 16.75C18.285 17.89 18.1 18.86 17.73 19.66C17.36 20.46 16.85 21.07 16.2 21.49C15.55 21.91 14.82 22.12 14.01 22.12ZM14.01 20.785C14.56 20.785 15.04 20.635 15.45 20.335C15.87 20.035 16.195 19.585 16.425 18.985C16.665 18.385 16.785 17.64 16.785 16.75C16.785 15.86 16.665 15.115 16.425 14.515C16.195 13.915 15.87 13.465 15.45 13.165C15.04 12.865 14.56 12.715 14.01 12.715C13.46 12.715 12.975 12.865 12.555 13.165C12.135 13.465 11.805 13.915 11.565 14.515C11.335 15.115 11.22 15.86 11.22 16.75C11.22 17.64 11.335 18.385 11.565 18.985C11.805 19.585 12.135 20.035 12.555 20.335C12.975 20.635 13.46 20.785 14.01 20.785ZM21.4949 22V12.1L22.1399 12.805H19.1249V11.5H22.9799V22H21.4949Z" fill="white"/>
</svg>
