<svg width="34" height="34" viewBox="0 0 34 34" fill="none" xmlns="http://www.w3.org/2000/svg">
<circle cx="17" cy="17" r="17" fill="#002685"/>
<path d="M13.01 22.12C12.19 22.12 11.455 21.91 10.805 21.49C10.165 21.07 9.655 20.46 9.275 19.66C8.905 18.86 8.72 17.89 8.72 16.75C8.72 15.61 8.905 14.64 9.275 13.84C9.655 13.04 10.165 12.43 10.805 12.01C11.455 11.59 12.19 11.38 13.01 11.38C13.82 11.38 14.55 11.59 15.2 12.01C15.85 12.43 16.36 13.04 16.73 13.84C17.1 14.64 17.285 15.61 17.285 16.75C17.285 17.89 17.1 18.86 16.73 19.66C16.36 20.46 15.85 21.07 15.2 21.49C14.55 21.91 13.82 22.12 13.01 22.12ZM13.01 20.785C13.56 20.785 14.04 20.635 14.45 20.335C14.87 20.035 15.195 19.585 15.425 18.985C15.665 18.385 15.785 17.64 15.785 16.75C15.785 15.86 15.665 15.115 15.425 14.515C15.195 13.915 14.87 13.465 14.45 13.165C14.04 12.865 13.56 12.715 13.01 12.715C12.46 12.715 11.975 12.865 11.555 13.165C11.135 13.465 10.805 13.915 10.565 14.515C10.335 15.115 10.22 15.86 10.22 16.75C10.22 17.64 10.335 18.385 10.565 18.985C10.805 19.585 11.135 20.035 11.555 20.335C11.975 20.635 12.46 20.785 13.01 20.785ZM18.5599 22V20.98L22.8349 16.855C23.2149 16.495 23.4949 16.18 23.6749 15.91C23.8649 15.63 23.9899 15.375 24.0499 15.145C24.1199 14.905 24.1549 14.675 24.1549 14.455C24.1549 13.915 23.9649 13.49 23.5849 13.18C23.2049 12.87 22.6499 12.715 21.9199 12.715C21.3599 12.715 20.8549 12.81 20.4049 13C19.9549 13.18 19.5649 13.465 19.2349 13.855L18.2149 12.97C18.6149 12.46 19.1499 12.07 19.8199 11.8C20.4999 11.52 21.2449 11.38 22.0549 11.38C22.7849 11.38 23.4199 11.5 23.9599 11.74C24.4999 11.97 24.9149 12.305 25.2049 12.745C25.5049 13.185 25.6549 13.705 25.6549 14.305C25.6549 14.645 25.6099 14.98 25.5199 15.31C25.4299 15.64 25.2599 15.99 25.0099 16.36C24.7599 16.73 24.3999 17.145 23.9299 17.605L20.1199 21.28L19.7599 20.695H26.1049V22H18.5599Z" fill="white"/>
</svg>
