<svg width="34" height="34" viewBox="0 0 34 34" fill="none" xmlns="http://www.w3.org/2000/svg">
<circle cx="17" cy="17" r="17" fill="#002685"/>
<path d="M13.01 22.12C12.19 22.12 11.455 21.91 10.805 21.49C10.165 21.07 9.655 20.46 9.275 19.66C8.905 18.86 8.72 17.89 8.72 16.75C8.72 15.61 8.905 14.64 9.275 13.84C9.655 13.04 10.165 12.43 10.805 12.01C11.455 11.59 12.19 11.38 13.01 11.38C13.82 11.38 14.55 11.59 15.2 12.01C15.85 12.43 16.36 13.04 16.73 13.84C17.1 14.64 17.285 15.61 17.285 16.75C17.285 17.89 17.1 18.86 16.73 19.66C16.36 20.46 15.85 21.07 15.2 21.49C14.55 21.91 13.82 22.12 13.01 22.12ZM13.01 20.785C13.56 20.785 14.04 20.635 14.45 20.335C14.87 20.035 15.195 19.585 15.425 18.985C15.665 18.385 15.785 17.64 15.785 16.75C15.785 15.86 15.665 15.115 15.425 14.515C15.195 13.915 14.87 13.465 14.45 13.165C14.04 12.865 13.56 12.715 13.01 12.715C12.46 12.715 11.975 12.865 11.555 13.165C11.135 13.465 10.805 13.915 10.565 14.515C10.335 15.115 10.22 15.86 10.22 16.75C10.22 17.64 10.335 18.385 10.565 18.985C10.805 19.585 11.135 20.035 11.555 20.335C11.975 20.635 12.46 20.785 13.01 20.785ZM21.7884 22.12C21.0484 22.12 20.3284 22.005 19.6284 21.775C18.9384 21.545 18.3734 21.235 17.9334 20.845L18.6234 19.66C18.9734 19.99 19.4284 20.26 19.9884 20.47C20.5484 20.68 21.1484 20.785 21.7884 20.785C22.5684 20.785 23.1734 20.62 23.6034 20.29C24.0434 19.95 24.2634 19.495 24.2634 18.925C24.2634 18.375 24.0534 17.935 23.6334 17.605C23.2234 17.265 22.5684 17.095 21.6684 17.095H20.8284V16.045L23.9484 12.205L24.1584 12.805H18.4134V11.5H25.3434V12.52L22.2384 16.345L21.4584 15.88H21.9534C23.2234 15.88 24.1734 16.165 24.8034 16.735C25.4434 17.305 25.7634 18.03 25.7634 18.91C25.7634 19.5 25.6184 20.04 25.3284 20.53C25.0384 21.02 24.5984 21.41 24.0084 21.7C23.4284 21.98 22.6884 22.12 21.7884 22.12Z" fill="white"/>
</svg>
