<svg width="34" height="34" viewBox="0 0 34 34" fill="none" xmlns="http://www.w3.org/2000/svg">
<circle cx="17" cy="17" r="17" fill="#002685"/>
<path d="M12.01 22.12C11.19 22.12 10.455 21.91 9.805 21.49C9.165 21.07 8.655 20.46 8.275 19.66C7.905 18.86 7.72 17.89 7.72 16.75C7.72 15.61 7.905 14.64 8.275 13.84C8.655 13.04 9.165 12.43 9.805 12.01C10.455 11.59 11.19 11.38 12.01 11.38C12.82 11.38 13.55 11.59 14.2 12.01C14.85 12.43 15.36 13.04 15.73 13.84C16.1 14.64 16.285 15.61 16.285 16.75C16.285 17.89 16.1 18.86 15.73 19.66C15.36 20.46 14.85 21.07 14.2 21.49C13.55 21.91 12.82 22.12 12.01 22.12ZM12.01 20.785C12.56 20.785 13.04 20.635 13.45 20.335C13.87 20.035 14.195 19.585 14.425 18.985C14.665 18.385 14.785 17.64 14.785 16.75C14.785 15.86 14.665 15.115 14.425 14.515C14.195 13.915 13.87 13.465 13.45 13.165C13.04 12.865 12.56 12.715 12.01 12.715C11.46 12.715 10.975 12.865 10.555 13.165C10.135 13.465 9.805 13.915 9.565 14.515C9.335 15.115 9.22 15.86 9.22 16.75C9.22 17.64 9.335 18.385 9.565 18.985C9.805 19.585 10.135 20.035 10.555 20.335C10.975 20.635 11.46 20.785 12.01 20.785ZM17.5749 19.42V18.37L22.9449 11.5H24.5649L19.2399 18.37L18.4749 18.13H26.8599V19.42H17.5749ZM23.4099 22V19.42L23.4549 18.13V15.85H24.8649V22H23.4099Z" fill="white"/>
</svg>
