<svg width="22" height="12" viewBox="0 0 22 12" fill="none" xmlns="http://www.w3.org/2000/svg">
<path d="M18.7921 0H14.2088C13.4498 0 12.8338 0.616 12.8338 1.375C12.8338 2.134 13.4498 2.75 14.2088 2.75H17.3062L11.9171 8.13908L8.14137 4.36333C7.19079 3.41275 5.64346 3.41275 4.69288 4.36333L0.402875 8.65242C-0.134292 9.18958 -0.134292 10.0595 0.402875 10.5967C0.940042 11.1338 1.80996 11.1338 2.34713 10.5967L6.41621 6.52758L10.192 10.3033C10.6677 10.7791 11.291 11.0165 11.9162 11.0165C12.5414 11.0165 13.1647 10.7782 13.6405 10.3033L19.2495 4.69425V7.79167C19.2495 8.55067 19.8655 9.16667 20.6245 9.16667C21.3835 9.16667 21.9995 8.55067 21.9995 7.79167V3.20833C21.9995 1.43917 20.5613 0 18.7921 0Z" fill="black"/>
</svg>
