<svg width="166" height="18" viewBox="0 0 166 18" fill="none" xmlns="http://www.w3.org/2000/svg">
<path d="M5.06396 13.5841L4.75196 7.36808L11.088 0.384081H17.256L10.152 8.20808L7.00796 11.4241L5.06396 13.5841ZM-4.19021e-05 17.1841V0.384081H5.56796V17.1841H-4.19021e-05ZM11.04 17.1841L6.09596 10.6561L9.76796 6.76808L17.592 17.1841H11.04ZM18.0838 17.1841L25.4278 0.384081H30.9958L38.3398 17.1841H32.4838L27.0598 3.07208H29.2678L23.8438 17.1841H18.0838ZM22.4518 14.2561L23.8918 10.1761H31.6198L33.0598 14.2561H22.4518ZM44.9308 17.1841L39.5548 0.384081H45.3868L49.7308 14.5681H46.8028L51.4108 0.384081H56.6188L60.9148 14.5681H58.1068L62.6428 0.384081H68.0188L62.6428 17.1841H56.5708L53.0668 5.56808H54.6988L51.0028 17.1841H44.9308ZM69.2431 17.1841L76.5871 0.384081H82.1551L89.4991 17.1841H83.6431L78.2191 3.07208H80.4271L75.0031 17.1841H69.2431ZM73.6111 14.2561L75.0511 10.1761H82.7791L84.2191 14.2561H73.6111ZM95.6073 17.1841V4.77608H90.6873V0.384081H106.191V4.77608H101.271V17.1841H95.6073ZM110.062 17.1841V0.384081H123.718V4.65608H115.63V12.9121H124.03V17.1841H110.062ZM115.246 10.7041V6.62408H122.734V10.7041H115.246ZM137.299 17.5681C135.955 17.5681 134.707 17.3601 133.555 16.9441C132.419 16.5121 131.427 15.9041 130.579 15.1201C129.747 14.3361 129.099 13.4081 128.635 12.3361C128.171 11.2641 127.939 10.0801 127.939 8.78408C127.939 7.48808 128.171 6.30408 128.635 5.23208C129.099 4.16008 129.747 3.23208 130.579 2.44808C131.427 1.66408 132.419 1.06408 133.555 0.648082C134.707 0.216082 135.955 8.15392e-05 137.299 8.15392e-05C138.947 8.15392e-05 140.403 0.288082 141.667 0.864082C142.947 1.44008 144.003 2.27208 144.835 3.36008L141.259 6.55208C140.763 5.92808 140.211 5.44808 139.603 5.11208C139.011 4.76008 138.339 4.58408 137.587 4.58408C136.995 4.58408 136.459 4.68008 135.979 4.87208C135.499 5.06408 135.083 5.34408 134.731 5.71208C134.395 6.08008 134.131 6.52808 133.939 7.05608C133.747 7.56808 133.651 8.14408 133.651 8.78408C133.651 9.42408 133.747 10.0081 133.939 10.5361C134.131 11.0481 134.395 11.4881 134.731 11.8561C135.083 12.2241 135.499 12.5041 135.979 12.6961C136.459 12.8881 136.995 12.9841 137.587 12.9841C138.339 12.9841 139.011 12.8161 139.603 12.4801C140.211 12.1281 140.763 11.6401 141.259 11.0161L144.835 14.2081C144.003 15.2801 142.947 16.1121 141.667 16.7041C140.403 17.2801 138.947 17.5681 137.299 17.5681ZM159.602 17.1841V0.384081H165.266V17.1841H159.602ZM148.706 17.1841V0.384081H154.37V17.1841H148.706ZM153.986 10.9921V6.33608H159.986V10.9921H153.986Z" fill="#319CE2"/>
</svg>
